# xmcd
#
# Track frame offsets: 
#        150
#        19912
#        41050
#        61207
#        75112
#        91627
#        108340
#        128022
#        148965
#        172815
#
# Disc length: 2490 seconds
#
# Revision: 2
# Processed by: cddbd v1.5.2PL0 Copyright (c) Steve Scherf et al.
# Submitted via: ExactAudioCopy v0.99pb5
#
DISCID=7209b80a
DTITLE=Manhattans - Manhattans - Greatest Hits
DYEAR=1900
DGENRE=
TTITLE0=I'll Never Find Another (Find Another Like You)
TTITLE1=Shining Star
TTITLE2=Kiss And Say Goodbye
TTITLE3=Hurt
TTITLE4=There's No Me Without You
TTITLE5=Do You Really Mean Goodbye
TTITLE6=We Never Danced To A Love Song
TTITLE7=It Feels So Good To Be Loved So Bad
TTITLE8=I Kinda Miss You
TTITLE9=Don't Take Your Love
EXTD=
EXTT0=
EXTT1=
EXTT2=
EXTT3=
EXTT4=
EXTT5=
EXTT6=
EXTT7=
EXTT8=
EXTT9=
PLAYORDER=
